<svg xmlns="http://www.w3.org/2000/svg" width="512" height="512" viewBox="0 0 24 24">
    <path fill="#000000"
          d="M12 21q-1.868 0-3.51-.708t-2.857-1.924t-1.924-2.856T3 12.003t.709-3.51t1.924-2.859T8.49 3.709T12 3q3.204 0 5.626 1.96t3.12 4.936q-.269-.096-.531-.137q-.262-.04-.542-.047q-.513-1.748-1.722-3.106T15 4.562V5q0 .825-.587 1.413T13 7h-2v2q0 .425-.288.713T10 10H8v2h6q.24 0 .447.109q.207.108.351.3q-.369.628-.564 1.325t-.195 1.439q0 1.364.706 2.579q.707 1.215 1.422 2.237q-.948.5-1.986.755T12 21m-1-1.05V18q-.825 0-1.412-.587T9 16v-1l-4.8-4.8q-.075.45-.137.9T4 12q0 3.025 1.988 5.3T11 19.95M19.5 21q-.079 0-.148-.05t-.096-.127q-.275-.856-.746-1.596t-1.027-1.446q-.448-.573-.754-1.223t-.306-1.394q0-1.268.902-2.168q.901-.9 2.177-.9q1.275 0 2.175.901t.9 2.176q0 .727-.305 1.379q-.304.652-.755 1.229q-.536.725-1.021 1.457q-.485.731-.752 1.585q-.027.076-.096.127T19.5 21m0-1.844q.308-.521.646-.99t.671-.939q.35-.454.613-.967t.262-1.087q0-.921-.635-1.557q-.636-.635-1.557-.635t-1.557.635t-.635 1.557q0 .573.262 1.087t.613.967q.357.471.683.949t.634.98m.058-3.117q-.364 0-.615-.252t-.25-.614t.25-.614t.615-.251t.614.25t.251.615t-.251.615q-.25.25-.614.25"/>
</svg>